<svg width="1000" height="1000" xmlns="http://www.w3.org/2000/svg" version="1.1"><g transform="translate(500,500)"><g display="none"><path d="M0,353.5533905932738A353.5533905932738,353.5533905932738 0 1,1 0,-353.5533905932738A353.5533905932738,353.5533905932738 0 1,1 0,353.5533905932738Z" style="stroke: rgb(255, 255, 255); fill: rgb(153, 127, 227); fill-rule: evenodd;"></path><text transform="rotate(90)" x="0" dx="6" dy=".35em" style="font-size: 11px; font-family: Arial, Helvetica;"></text><title>undefined: none</title></g><g><path d="M3.061616997868383e-14,-500A500,500 0 0,1 9.433652392233524,-499.9109982812366L6.670599577905022,-353.4904568743989A353.5533905932738,353.5533905932738 0 0,0 2.1648901405887332e-14,-353.5533905932738Z" style="stroke: rgb(255, 255, 255); fill: rgb(153, 127, 227); fill-rule: evenodd;"></path><text transform="rotate(-89.45945945945947)" x="353.5533905932738" dx="6" dy=".35em" style="font-size: 11px; font-family: Arial, Helvetica;">10-14</text><title>10-14: </title></g><g><path d="M9.433652392233524,-499.9109982812366A500,500 0 0,1 130.54825520604408,-482.65635089850167L92.31155652826577,-341.2895787030843A353.5533905932738,353.5533905932738 0 0,0 6.670599577905022,-353.4904568743989Z" style="stroke: rgb(255, 255, 255); fill: rgb(153, 127, 227); fill-rule: evenodd;"></path><text transform="rotate(-81.8918918918919)" x="353.5533905932738" dx="6" dy=".35em" style="font-size: 11px; font-family: Arial, Helvetica;">40-49</text><title>40-49: </title></g><g><path d="M130.54825520604408,-482.65635089850167A500,500 0 0,1 420.74264865002505,-270.14000741645356L297.5099799948217,-191.01783111395855A353.5533905932738,353.5533905932738 0 0,0 92.31155652826577,-341.2895787030843Z" style="stroke: rgb(255, 255, 255); fill: rgb(153, 127, 227); fill-rule: evenodd;"></path><text transform="rotate(-53.78378378378379)" x="353.5533905932738" dx="6" dy=".35em" style="font-size: 11px; font-family: Arial, Helvetica;">15-19</text><title>15-19: </title></g><g><path d="M420.74264865002505,-270.14000741645356A500,500 0 0,1 -61.168762189228346,496.2442770775675L-43.25284654079065,350.897693446564A353.5533905932738,353.5533905932738 0 0,0 297.5099799948217,-191.01783111395855Z" style="stroke: rgb(255, 255, 255); fill: rgb(153, 127, 227); fill-rule: evenodd;"></path><text transform="rotate(32.16216216216214)" x="353.5533905932738" dx="6" dy=".35em" style="font-size: 11px; font-family: Arial, Helvetica;">30-39</text><title>30-39: 36</title></g><g><path d="M-61.168762189228346,496.2442770775675A500,500 0 0,1 -9.184850993605149e-14,-500L-6.4946704217662e-14,-353.5533905932738A353.5533905932738,353.5533905932738 0 0,0 -43.25284654079065,350.897693446564Z" style="stroke: rgb(255, 255, 255); fill: rgb(153, 127, 227); fill-rule: evenodd;"></path><text transform="rotate(183.51351351351352)" x="353.5533905932738" dx="6" dy=".35em" style="font-size: 11px; font-family: Arial, Helvetica;">20-29</text><title>20-29: 48</title></g></g></svg>